<svg id="facebook_white" xmlns="http://www.w3.org/2000/svg" width="61.797" height="61.798" viewBox="0 0 61.797 61.798">
  <g id="Group_26" data-name="Group 26">
    <path id="Path_8" data-name="Path 8" d="M54.556,0H7.242A7.25,7.25,0,0,0,0,7.242V54.556A7.25,7.25,0,0,0,7.242,61.8H54.556A7.25,7.25,0,0,0,61.8,54.556V7.242A7.25,7.25,0,0,0,54.556,0ZM56.97,54.556a2.417,2.417,0,0,1-2.414,2.414H40.8V37.3h7.458l1.232-7.483H40.8v-5.19A3.56,3.56,0,0,1,44.417,21h4.949V13.518H44.417a11.1,11.1,0,0,0-11.1,11.125v5.169H26.071V37.3h7.245V56.97H7.242a2.417,2.417,0,0,1-2.414-2.414V7.242A2.417,2.417,0,0,1,7.242,4.828H54.556A2.417,2.417,0,0,1,56.97,7.242Z" fill="#fff"/>
  </g>
</svg>
