<svg id="github_white" xmlns="http://www.w3.org/2000/svg" width="61" height="61" viewBox="0 0 61 61">
  <path id="Path_9" data-name="Path 9" d="M56.909,20.936a30.759,30.759,0,0,0-11.1-11.378A29.273,29.273,0,0,0,30.5,5.365,29.277,29.277,0,0,0,15.19,9.558a30.756,30.756,0,0,0-11.1,11.378A31.174,31.174,0,0,0,0,36.629a30.9,30.9,0,0,0,5.818,18.38,29.93,29.93,0,0,0,15.031,11.3,1.743,1.743,0,0,0,1.588-.285,1.611,1.611,0,0,0,.516-1.221q0-.122-.02-2.2t-.02-3.622L22,59.141a11.372,11.372,0,0,1-2.2.143A16.4,16.4,0,0,1,17.036,59a6.1,6.1,0,0,1-2.661-1.22,5.163,5.163,0,0,1-1.747-2.5l-.4-.937a10.221,10.221,0,0,0-1.251-2.076,4.827,4.827,0,0,0-1.727-1.547l-.278-.2a2.944,2.944,0,0,1-.516-.489,2.241,2.241,0,0,1-.357-.57q-.119-.286.2-.469A2.52,2.52,0,0,1,9.452,48.8l.794.122a5.736,5.736,0,0,1,1.966.977,6.508,6.508,0,0,1,1.926,2.116,7.119,7.119,0,0,0,2.2,2.545,4.6,4.6,0,0,0,2.6.875,11.025,11.025,0,0,0,2.264-.2,7.766,7.766,0,0,0,1.787-.611,6.662,6.662,0,0,1,1.946-4.193,26.591,26.591,0,0,1-4.071-.733,15.989,15.989,0,0,1-3.733-1.588,10.758,10.758,0,0,1-3.2-2.727,13.235,13.235,0,0,1-2.085-4.275A20.8,20.8,0,0,1,11.04,35a12.041,12.041,0,0,1,3.138-8.386,11.2,11.2,0,0,1,.278-8.3,5.443,5.443,0,0,1,3.415.549,23.613,23.613,0,0,1,3.316,1.568q1.053.65,1.688,1.1a28.005,28.005,0,0,1,15.251,0l1.509-.977a21.15,21.15,0,0,1,3.653-1.792A5.089,5.089,0,0,1,46.5,18.31a11.089,11.089,0,0,1,.317,8.3A12.043,12.043,0,0,1,49.96,35a21.035,21.035,0,0,1-.814,6.126,12.718,12.718,0,0,1-2.1,4.275,11.167,11.167,0,0,1-3.217,2.707A16.019,16.019,0,0,1,40.091,49.7a26.562,26.562,0,0,1-4.07.734q2.064,1.831,2.064,5.78V64.8a1.642,1.642,0,0,0,.5,1.221,1.692,1.692,0,0,0,1.568.284,29.925,29.925,0,0,0,15.032-11.3A30.905,30.905,0,0,0,61,36.627,31.2,31.2,0,0,0,56.909,20.936Z" transform="translate(0 -5.365)" fill="#fff"/>
</svg>
