<svg xmlns="http://www.w3.org/2000/svg" width="61.795" height="61.798" viewBox="0 0 61.795 61.798">
  <path id="instagram_white" d="M31.507,61.8h-.615c-4.844.012-9.32-.111-13.672-.376A18.276,18.276,0,0,1,6.685,57.434,16.91,16.91,0,0,1,1,48.26,40.65,40.65,0,0,1,.07,38.553C.039,36.3.007,33.624,0,30.906s.039-5.4.07-7.659A40.655,40.655,0,0,1,1,13.54,16.91,16.91,0,0,1,6.685,4.366,18.276,18.276,0,0,1,17.22.378C21.573.114,26.049-.01,30.9,0c4.845-.01,9.32.112,13.672.376A18.276,18.276,0,0,1,55.111,4.366a16.907,16.907,0,0,1,5.682,9.174,40.653,40.653,0,0,1,.933,9.707c.031,2.256.064,4.929.07,7.648v.011c-.006,2.719-.039,5.392-.07,7.648a40.631,40.631,0,0,1-.933,9.707,16.907,16.907,0,0,1-5.682,9.174,18.276,18.276,0,0,1-10.535,3.988c-4.168.254-8.45.377-13.069.377Zm-.615-4.829c4.765.011,9.141-.109,13.391-.367a13.3,13.3,0,0,0,7.777-2.91,12.189,12.189,0,0,0,4.055-6.626,36.983,36.983,0,0,0,.783-8.579c.031-2.241.063-4.9.069-7.587s-.039-5.347-.069-7.587a36.989,36.989,0,0,0-.783-8.579A12.189,12.189,0,0,0,52.06,8.107,13.3,13.3,0,0,0,44.283,5.2c-4.25-.259-8.626-.378-13.38-.368-4.764-.011-9.14.109-13.39.368a13.3,13.3,0,0,0-7.777,2.91,12.189,12.189,0,0,0-4.055,6.626A36.987,36.987,0,0,0,4.9,23.312c-.031,2.243-.063,4.9-.069,7.593s.039,5.339.069,7.582a36.983,36.983,0,0,0,.783,8.579,12.189,12.189,0,0,0,4.055,6.626,13.3,13.3,0,0,0,7.777,2.91C21.763,56.861,26.14,56.982,30.892,56.97Zm-.115-10.983A15.087,15.087,0,1,1,45.864,30.9,15.1,15.1,0,0,1,30.777,45.987Zm0-25.347A10.259,10.259,0,1,0,41.036,30.9,10.271,10.271,0,0,0,30.777,20.641Zm16.777-9.656a3.621,3.621,0,1,0,3.621,3.621A3.621,3.621,0,0,0,47.554,10.985Zm0,0" transform="translate(0 -0.001)" fill="#fff"/>
</svg>
