<svg xmlns="http://www.w3.org/2000/svg" width="61.797" height="61.798" viewBox="0 0 61.797 61.798">
  <path id="linkedin_white" d="M19.313,51.055H10.864V23.778h8.449Zm.843-35.969a4.948,4.948,0,1,0-4.946,4.949,4.949,4.949,0,0,0,4.946-4.949ZM50.935,36.048c0-7.323-1.547-12.753-10.1-12.753-4.11,0-6.869,2.056-8,4.193H32.83V23.778H24.623V51.055H32.83V37.512c0-3.547.9-6.983,5.3-6.983,4.337,0,4.477,4.056,4.477,7.208V51.055h8.328ZM61.8,54.556V7.242A7.25,7.25,0,0,0,54.556,0H7.242A7.25,7.25,0,0,0,0,7.242V54.556A7.25,7.25,0,0,0,7.242,61.8H54.556A7.25,7.25,0,0,0,61.8,54.556ZM54.556,4.828A2.417,2.417,0,0,1,56.97,7.242V54.556a2.417,2.417,0,0,1-2.414,2.414H7.242a2.417,2.417,0,0,1-2.414-2.414V7.242A2.417,2.417,0,0,1,7.242,4.828Zm0,0" transform="translate(0)" fill="#fff"/>
</svg>
